<svg width="650" height="452" viewBox="0 0 650 452" fill="none" xmlns="http://www.w3.org/2000/svg">
<g filter="url(#filter0_d_2_63)">
<path d="M441.685 13.9262H4.18658V220.347H441.685V13.9262Z" fill="#E6E6E6"/>
<path d="M429.175 31.6272H16.697V203.851H429.175V31.6272Z" fill="white"/>
<path d="M441.499 2H4V20.4806H441.499V2Z" fill="#F05454"/>
<path d="M17.8118 13.9735C19.7144 13.9735 21.2567 12.4399 21.2567 10.5481C21.2567 8.6564 19.7144 7.12283 17.8118 7.12283C15.9093 7.12283 14.3669 8.6564 14.3669 10.5481C14.3669 12.4399 15.9093 13.9735 17.8118 13.9735Z" fill="white"/>
<path d="M30.8875 13.9735C32.7901 13.9735 34.3325 12.4399 34.3325 10.5481C34.3325 8.6564 32.7901 7.12283 30.8875 7.12283C28.985 7.12283 27.4426 8.6564 27.4426 10.5481C27.4426 12.4399 28.985 13.9735 30.8875 13.9735Z" fill="white"/>
<path d="M43.9639 13.9735C45.8664 13.9735 47.4087 12.4399 47.4087 10.5481C47.4087 8.6564 45.8664 7.12283 43.9639 7.12283C42.0613 7.12283 40.519 8.6564 40.519 10.5481C40.519 12.4399 42.0613 13.9735 43.9639 13.9735Z" fill="white"/>
<path d="M172.591 100.307H85.1344V174.374H172.591V100.307Z" fill="white"/>
<path d="M172.845 174.627H84.8801V100.054H172.845V174.627ZM85.3886 174.121H172.337V100.56H85.3886V174.121Z" fill="#3F3D56"/>
<path d="M139.795 114.716H117.931V174.374H139.795V114.716Z" fill="#F05454"/>
<path d="M139.795 114.716H117.931V174.374H139.795V114.716Z" fill="#F05454"/>
<path opacity="0.2" d="M85.3883 105.742V117.759L172.591 123.311L172.334 108.483L85.3883 105.742Z" fill="black"/>
<path d="M177.675 93.4815H80.0497V114.716H177.675V93.4815Z" fill="white"/>
<path d="M177.93 114.969H79.7955V93.2287H177.93V114.969ZM80.3041 114.463H177.421V93.7343H80.304L80.3041 114.463Z" fill="#3F3D56"/>
<path d="M139.795 91.4592H117.931V114.463H139.795V91.4592Z" fill="#F05454"/>
<path d="M126.522 71.402C132.293 79.9087 126.855 93.5906 126.855 93.5906C126.855 93.5906 112.06 93.4804 106.289 84.9736C100.517 76.4668 105.955 62.7849 105.955 62.7849C105.955 62.7849 120.75 62.8952 126.522 71.402Z" fill="#F05454"/>
<path d="M129.17 71.402C123.398 79.9087 128.836 93.5906 128.836 93.5906C128.836 93.5906 143.631 93.4804 149.403 84.9736C155.174 76.4668 149.736 62.7849 149.736 62.7849C149.736 62.7849 134.941 62.8952 129.17 71.402Z" fill="#F05454"/>
<path d="M113.609 77.8086C114.872 77.8086 115.897 76.79 115.897 75.5335C115.897 74.277 114.872 73.2584 113.609 73.2584C112.345 73.2584 111.32 74.277 111.32 75.5335C111.32 76.79 112.345 77.8086 113.609 77.8086Z" fill="#3F3D56"/>
<path d="M127.337 100.812C128.601 100.812 129.625 99.7938 129.625 98.5373C129.625 97.2808 128.601 96.2622 127.337 96.2622C126.073 96.2622 125.049 97.2808 125.049 98.5373C125.049 99.7938 126.073 100.812 127.337 100.812Z" fill="#3F3D56"/>
<path d="M127.337 150.612C128.601 150.612 129.625 149.593 129.625 148.337C129.625 147.08 128.601 146.062 127.337 146.062C126.073 146.062 125.049 147.08 125.049 148.337C125.049 149.593 126.073 150.612 127.337 150.612Z" fill="#3F3D56"/>
<path d="M119.71 85.3923C120.553 85.3923 121.236 84.7132 121.236 83.8755C121.236 83.0379 120.553 82.3588 119.71 82.3588C118.868 82.3588 118.185 83.0379 118.185 83.8755C118.185 84.7132 118.868 85.3923 119.71 85.3923Z" fill="#3F3D56"/>
<path d="M142.591 72.5C143.434 72.5 144.117 71.821 144.117 70.9833C144.117 70.1456 143.434 69.4666 142.591 69.4666C141.749 69.4666 141.066 70.1456 141.066 70.9833C141.066 71.821 141.749 72.5 142.591 72.5Z" fill="#3F3D56"/>
<path d="M132.676 108.143C133.519 108.143 134.201 107.464 134.201 106.627C134.201 105.789 133.519 105.11 132.676 105.11C131.834 105.11 131.151 105.789 131.151 106.627C131.151 107.464 131.834 108.143 132.676 108.143Z" fill="#3F3D56"/>
<path d="M123.524 127.861C124.366 127.861 125.049 127.182 125.049 126.344C125.049 125.506 124.366 124.827 123.524 124.827C122.681 124.827 121.998 125.506 121.998 126.344C121.998 127.182 122.681 127.861 123.524 127.861Z" fill="#3F3D56"/>
<path d="M131.405 134.686C132.247 134.686 132.93 134.007 132.93 133.169C132.93 132.332 132.247 131.653 131.405 131.653C130.562 131.653 129.88 132.332 129.88 133.169C129.88 134.007 130.562 134.686 131.405 134.686Z" fill="#3F3D56"/>
<path d="M129.625 163.251C130.468 163.251 131.151 162.572 131.151 161.735C131.151 160.897 130.468 160.218 129.625 160.218C128.783 160.218 128.1 160.897 128.1 161.735C128.1 162.572 128.783 163.251 129.625 163.251Z" fill="#3F3D56"/>
<path d="M358.047 135.187H228.264C226.643 135.187 225.088 134.547 223.942 133.407C222.796 132.267 222.151 130.721 222.151 129.109C222.151 127.497 222.796 125.951 223.942 124.811C225.088 123.671 226.643 123.031 228.264 123.031H358.047C359.669 123.031 361.224 123.671 362.37 124.811C363.516 125.951 364.16 127.497 364.16 129.109C364.16 130.721 363.516 132.267 362.37 133.407C361.224 134.547 359.669 135.187 358.047 135.187Z" fill="#E4E4E4"/>
<path d="M316.197 114.381H228.264C226.643 114.381 225.088 113.741 223.942 112.601C222.796 111.461 222.151 109.915 222.151 108.303C222.151 106.691 222.796 105.145 223.942 104.005C225.088 102.865 226.643 102.225 228.264 102.225H316.197C317.818 102.225 319.373 102.865 320.52 104.005C321.666 105.145 322.31 106.691 322.31 108.303C322.31 109.915 321.666 111.461 320.52 112.601C319.373 113.741 317.818 114.381 316.197 114.381Z" fill="#E4E4E4"/>
<path d="M349.159 174.627C353.489 170.873 360.474 167.329 366.104 165.253C360.474 163.176 353.489 159.632 349.159 155.878L352.21 164.268H336.377V166.239H352.21L349.159 174.627Z" fill="#3F3D56"/>
<path d="M463.267 266.168C464.064 265.585 464.973 265.193 465.93 265.019C466.886 264.845 467.868 264.894 468.805 265.161C469.742 265.428 470.612 265.908 471.353 266.566C472.094 267.224 472.689 268.045 473.096 268.97L488.262 268.356L490.865 277.938L469.436 278.49C467.909 279.104 466.221 279.108 464.691 278.502C463.162 277.897 461.897 276.723 461.137 275.204C460.376 273.686 460.173 271.927 460.566 270.261C460.959 268.595 461.92 267.139 463.267 266.168H463.267Z" fill="#FFB6B6"/>
<path d="M475.453 279.688L490.912 281.726L492.869 281.981L524.321 286.122C524.321 286.122 533.971 278.822 542.553 271.11V263.06C542.559 255.16 539.831 247.527 534.875 241.581C523.26 247.495 515.149 261.361 515.149 261.361L495.038 263.423L493.026 263.629L480.53 264.907L475.453 279.688Z" fill="#E4E4E4"/>
<path d="M539.712 344.329H510.632C510.632 345.637 478.844 346.698 478.844 346.698C478.143 347.252 477.504 347.888 476.939 348.593C475.242 350.718 474.315 353.403 474.321 356.175V358.07C474.322 361.211 475.511 364.223 477.627 366.445C479.744 368.666 482.614 369.914 485.607 369.915H539.712C542.705 369.913 545.574 368.664 547.69 366.443C549.806 364.222 550.996 361.211 550.999 358.07V356.175C550.995 353.034 549.804 350.024 547.688 347.803C545.573 345.583 542.704 344.333 539.712 344.329Z" fill="#3F3D56"/>
<path d="M506.828 369.445H518.566V440.553H506.828V369.445Z" fill="#3F3D56"/>
<path d="M473.42 440.12C473.42 441.451 491.207 440.635 513.148 440.635C535.089 440.635 552.876 441.451 552.876 440.12C552.876 438.789 535.089 428.233 513.148 428.233C491.207 428.233 473.42 438.789 473.42 440.12Z" fill="#3F3D56"/>
<path d="M465.535 431.994H456.8L452.644 396.63H465.536L465.535 431.994Z" fill="#FFB6B6"/>
<path d="M467.764 429.001L450.56 429.001H450.559C447.652 429.001 444.863 430.213 442.807 432.371C440.751 434.529 439.596 437.456 439.596 440.507V440.881L467.763 440.882L467.764 429.001Z" fill="#2F2E41"/>
<path d="M439.717 431.994H430.98L426.825 396.63H439.717L439.717 431.994Z" fill="#FFB6B6"/>
<path d="M441.945 429.001L424.741 429.001H424.74C421.832 429.001 419.044 430.213 416.988 432.371C414.932 434.529 413.777 437.456 413.776 440.507V440.881L441.944 440.882L441.945 429.001Z" fill="#2F2E41"/>
<path d="M513.019 228.398C504.631 228.398 497.83 221.261 497.83 212.457C497.83 203.653 504.631 196.515 513.019 196.515C521.408 196.515 528.208 203.653 528.208 212.457C528.208 221.261 521.408 228.398 513.019 228.398Z" fill="#FFB6B6"/>
<path d="M511.306 204.854C511.306 204.854 505.904 196.972 500.871 204.857C495.839 212.743 490.862 203.177 492.018 200.172C493.174 197.168 492.87 196.806 501.253 192.903C509.637 189.001 525.754 181.155 530.47 200.628C535.186 220.102 525.536 220.47 525.536 220.47C525.536 220.47 523.568 201.547 521.295 206.875L519.023 212.202L516.689 213.077L511.306 204.854Z" fill="#2F2E41"/>
<path d="M542.552 321.682C542.552 321.682 547.649 349.966 528.258 353.568C508.867 357.17 480.876 359.701 480.876 359.701L468.306 421.253L451.418 419.671C451.418 419.671 453.664 345.576 459.187 339.779C464.711 333.982 499.62 316.625 499.62 316.625L542.552 321.682Z" fill="#2F2E41"/>
<path d="M504.68 309.828L496.2 318.757C496.2 318.757 434.964 329.109 432.602 343.953C429.035 366.364 424.823 415.099 424.823 415.099L443.234 413.649L450.453 358.252L479.911 351.219L513.425 332.05L504.68 309.828Z" fill="#2F2E41"/>
<path d="M497.262 317.45C497.262 317.45 544.565 336.899 543.528 325.459C542.325 312.204 542.553 306.43 542.553 306.43V263.06C542.552 257.134 541.015 251.321 538.108 246.242C535.201 241.162 531.033 237.008 526.049 234.223L510.08 234.504L505.153 241.358C501.192 262.185 500.406 264.66 500.406 264.66L497.105 274.146L496.413 280.076L498.834 292.704L497.262 317.45Z" fill="#E4E4E4"/>
<path d="M458.417 266.214L458.51 266.184L456.956 260.939C456.46 259.262 456.717 257.688 457.531 257.423L462.924 255.664C463.737 255.398 464.799 256.542 465.296 258.218L473.817 286.991C474.314 288.667 474.056 290.241 473.243 290.507L467.85 292.266C467.036 292.532 465.974 291.388 465.478 289.711L459.615 269.917L459.522 269.947L458.417 266.214Z" fill="#F05454"/>
<path d="M457.631 267.039L457.724 267.008L456.171 261.764C455.674 260.087 455.931 258.513 456.745 258.248L462.138 256.488C462.951 256.223 464.013 257.367 464.51 259.043L473.031 287.816C473.528 289.492 473.271 291.066 472.457 291.332L467.064 293.091C466.25 293.356 465.188 292.213 464.692 290.536L458.829 270.742L458.737 270.772L457.631 267.039Z" fill="#3F3D56"/>
<path d="M461.139 266.615C460.835 265.589 460.993 264.624 461.491 264.462C461.99 264.299 462.64 265 462.944 266.027C463.248 267.053 463.091 268.018 462.592 268.18C462.094 268.343 461.444 267.642 461.139 266.615Z" fill="#D0CDE1"/>
<path d="M459.833 278.54C460.63 277.958 461.538 277.566 462.495 277.392C463.452 277.218 464.433 277.266 465.37 277.533C466.307 277.8 467.177 278.28 467.919 278.938C468.66 279.596 469.255 280.417 469.661 281.343L484.827 280.729L487.431 290.311L466.001 290.862C464.475 291.476 462.787 291.48 461.257 290.875C459.727 290.269 458.462 289.096 457.702 287.577C456.942 286.058 456.739 284.299 457.131 282.634C457.524 280.968 458.485 279.511 459.833 278.54H459.833Z" fill="#FFB6B6"/>
<path d="M472.019 292.061L489.434 294.354L520.886 298.495C520.886 298.495 533.358 289.059 542.553 280.307V263.06C542.554 259.058 541.854 255.091 540.486 251.355C524.265 252.287 511.715 273.733 511.715 273.733L491.603 275.795L477.095 277.28L472.019 292.061Z" fill="#E4E4E4"/>
<path d="M341.471 442H640.899C641.108 442 641.308 441.913 641.455 441.758C641.602 441.604 641.685 441.394 641.685 441.175C641.685 440.956 641.602 440.747 641.455 440.592C641.308 440.437 641.108 440.35 640.899 440.35H341.471C341.263 440.35 341.063 440.437 340.915 440.592C340.768 440.747 340.685 440.956 340.685 441.175C340.685 441.394 340.768 441.604 340.915 441.758C341.063 441.913 341.263 442 341.471 442Z" fill="#CACACA"/>
</g>
<defs>
<filter id="filter0_d_2_63" x="0" y="0" width="649.685" height="452" filterUnits="userSpaceOnUse" color-interpolation-filters="sRGB">
<feFlood flood-opacity="0" result="BackgroundImageFix"/>
<feColorMatrix in="SourceAlpha" type="matrix" values="0 0 0 0 0 0 0 0 0 0 0 0 0 0 0 0 0 0 127 0" result="hardAlpha"/>
<feOffset dx="2" dy="4"/>
<feGaussianBlur stdDeviation="3"/>
<feComposite in2="hardAlpha" operator="out"/>
<feColorMatrix type="matrix" values="0 0 0 0 0.183333 0 0 0 0 0.183333 0 0 0 0 0.183333 0 0 0 0.25 0"/>
<feBlend mode="normal" in2="BackgroundImageFix" result="effect1_dropShadow_2_63"/>
<feBlend mode="normal" in="SourceGraphic" in2="effect1_dropShadow_2_63" result="shape"/>
</filter>
</defs>
</svg>
