<svg width="577" height="604" viewBox="0 0 577 604" fill="none" xmlns="http://www.w3.org/2000/svg">
<g clip-path="url(#clip0_2_132)" filter="url(#filter0_d_2_132)">
<path d="M156.229 397.308L151.613 432.605C112.783 424.996 75.7806 432.979 68.0419 471.156L49.3174 467.487C54.0543 444.255 67.9707 423.819 88.0135 410.662C108.056 397.506 132.589 392.703 156.229 397.308Z" fill="#F05454"/>
<path d="M303.766 256.59C320.803 267.429 344.169 267.738 361.496 257.354C362.19 254.086 362.884 250.818 363.578 247.551C367.663 251.722 375.696 250.935 378.863 246.053C362.294 211.314 337.975 180.693 307.713 156.467C316.455 161.813 329.077 159.802 335.653 152.014C345.541 148.731 354.905 144.082 363.463 138.207C334.115 91.847 278.152 55.017 264.85 2C224.833 44.2518 220.341 59.1325 180.323 101.384C180.323 101.384 142.431 135.002 134.252 153.068C136.262 155.144 154.253 160.124 154.945 164.205C161.828 164.701 168.74 163.735 175.209 161.37C181.679 159.005 187.554 155.298 192.435 150.5C166.714 177.377 140.553 204.883 124.801 238.38C123.382 241.396 122.035 244.841 123.223 247.952C124.172 250.436 127.576 251.868 129.768 250.881C127.149 253.364 125.047 256.324 123.577 259.596C132.535 265.549 145.745 264.241 153.315 256.651C151.121 260.682 148.927 264.712 146.733 268.742C154.209 271.422 162.15 272.628 170.101 272.289C178.052 271.951 185.857 270.076 193.07 266.771C175.69 277.491 132.233 314.657 122.767 332.553C118.479 340.66 162.511 350.433 172.415 350.032C182.319 349.632 191.577 345.353 200.522 341.154C200.086 345.164 200.866 349.211 202.764 352.786C207.663 353.955 212.75 354.15 217.726 353.359C222.702 352.568 227.468 350.807 231.742 348.18C231.208 359.026 250.22 363.318 254.553 353.33C252.927 359.202 260.83 362.837 266.924 363.901C284.312 366.936 305.294 368.781 316.609 355.449C329.631 368.36 353.495 368.115 366.442 355.249C365.168 357.469 367.118 361.204 370.003 361.793C373.403 362.486 376.71 360.5 379.597 358.603C392.665 350.013 405.732 341.424 418.8 332.834C380.455 307.419 342.111 282.005 303.766 256.59Z" fill="#F1F2F2"/>
<path d="M259.746 331.388H242.417V471.945H259.746V331.388Z" fill="#F1F2F2"/>
<path d="M276.087 276.805C275.561 278.478 274.849 280.088 273.963 281.606C272.359 284.352 270.205 286.749 267.631 288.652C266.764 289.288 265.856 289.868 264.912 290.388C260.76 292.686 256.006 293.718 251.256 293.35C250.401 293.285 249.551 293.169 248.71 293.003C247.804 292.841 246.908 292.624 246.029 292.354C243.153 291.482 240.468 290.085 238.117 288.237C237.443 287.712 236.801 287.149 236.193 286.55C231.845 282.293 229.311 276.565 229.11 270.535C229.08 269.671 229.102 268.806 229.174 267.944C229.226 267.281 229.309 266.618 229.423 265.952C229.603 264.887 229.856 263.835 230.18 262.803C230.881 260.569 231.916 258.449 233.25 256.513C233.517 256.12 233.802 255.741 234.094 255.364C242.201 245.033 254.828 253.85 267.8 251.091C280.012 248.492 280.13 254.484 276.094 262.867C277.525 267.407 277.522 272.267 276.087 276.805Z" fill="white"/>
<path opacity="0.1" d="M234.096 255.399L229.112 270.57C229.083 269.706 229.104 268.841 229.176 267.979C229.229 267.316 229.311 266.653 229.425 265.987L233.264 256.551C233.539 256.148 233.804 255.776 234.096 255.399Z" fill="black"/>
<path opacity="0.1" d="M262.638 258.734L251.26 293.377C250.405 293.312 249.555 293.196 248.715 293.03L262.638 258.734Z" fill="black"/>
<path opacity="0.1" d="M276.113 262.834L276.101 262.873L267.625 288.671C266.758 289.308 265.85 289.888 264.906 290.407L276.084 262.86L276.113 262.834Z" fill="black"/>
<path d="M283.81 326.984C280.5 337.563 273.381 346.593 263.787 352.383C262.523 353.143 261.232 353.848 259.905 354.487C253.106 357.786 245.587 359.393 238.009 359.168C236.762 359.139 235.505 359.047 234.256 358.902C227.963 358.207 221.879 356.262 216.375 353.183C215.295 352.586 214.247 351.938 213.232 351.257C207.136 347.173 202.12 341.719 198.599 335.346C197.932 334.165 197.326 332.943 196.78 331.696C186.526 308.55 221.035 281.619 220.839 271.534C220.642 261.448 271.776 272.043 282.029 295.188C286.48 305.234 287.112 316.518 283.81 326.984Z" fill="#F05454"/>
<path opacity="0.1" d="M237.817 287.202L216.354 353.194C215.274 352.596 214.226 351.949 213.211 351.268L237.817 287.202Z" fill="black"/>
<path opacity="0.1" d="M259.275 293.731L237.987 359.182C236.74 359.153 235.483 359.061 234.234 358.916L259.275 293.731Z" fill="black"/>
<path d="M235.53 325.752C276.237 340.14 302.371 363.971 282.696 415.633C268.483 452.952 230.169 475.181 192.138 463.609C154.106 452.038 135.253 412.415 144.972 373.728C160.06 313.668 197.37 312.263 235.53 325.752Z" fill="#E6E6E6"/>
<path d="M267.82 494.165C261.86 513.211 248.867 529.375 231.396 539.477C229.496 540.588 227.547 541.618 225.547 542.568C218.913 545.738 211.871 548.01 204.616 549.319C202.651 549.678 200.667 549.963 198.663 550.174C192.718 550.803 186.72 550.782 180.779 550.111C178.866 549.896 176.953 549.612 175.042 549.259C171.948 548.686 168.891 547.937 165.885 547.015C163.529 546.298 161.235 545.489 159.001 544.587C157.221 543.866 155.475 543.087 153.77 542.265C148.575 539.742 143.672 536.674 139.147 533.116C137.628 531.939 136.159 530.707 134.739 529.421C129.767 524.914 125.387 519.814 121.702 514.239C120.588 512.567 84.3041 498.562 83.3289 496.809C72.6335 477.775 105.539 467.568 112.106 446.803C112.835 444.487 113.659 442.23 114.577 440.031C139.207 352.791 173.116 387.5 214.041 393.953C260.122 401.22 292.891 410.747 269.646 487.214C269.155 489.531 268.546 491.848 267.82 494.165Z" fill="#F05454"/>
<path opacity="0.1" d="M149.867 427.643L121.715 514.226C120.601 512.554 119.557 510.842 118.582 509.09L149.867 427.643Z" fill="black"/>
<path opacity="0.1" d="M171.325 434.172L139.146 533.12C137.628 531.94 136.159 530.707 134.739 529.421L171.325 434.172Z" fill="black"/>
<path opacity="0.1" d="M158.998 544.586L192.785 440.693L153.77 542.265L158.998 544.586Z" fill="black"/>
<path opacity="0.1" d="M180.788 550.097L214.239 447.221L175.051 549.244L180.788 550.097Z" fill="black"/>
<path opacity="0.1" d="M235.694 453.757L204.622 549.312C202.658 549.672 200.673 549.957 198.669 550.167L235.694 453.757Z" fill="black"/>
<path opacity="0.1" d="M257.152 460.286L231.402 539.47C229.503 540.581 227.553 541.611 225.554 542.561L257.152 460.286Z" fill="black"/>
<path d="M267.645 366.164C264.43 376.335 257.408 384.927 247.998 390.204C238.587 395.481 227.491 397.049 216.95 394.591C206.409 392.134 197.21 385.834 191.212 376.965C185.213 368.096 182.862 357.319 184.634 346.812C186.406 336.304 192.169 326.85 200.757 320.359C209.346 313.868 220.121 310.824 230.904 311.843C241.688 312.861 251.676 317.867 258.85 325.847C266.025 333.827 269.851 344.187 269.556 354.834C269.449 358.679 268.806 362.491 267.645 366.164Z" fill="#FFAB9E"/>
<path d="M201.921 302.085L284.989 327.36C288.564 328.447 290.349 332.866 288.975 337.229C292.468 344.57 294.588 351.94 281.931 359.608C280.558 363.971 276.547 366.626 272.972 365.538C250.715 341.808 223.867 331.013 189.904 340.263C186.329 339.176 184.544 334.757 185.918 330.394C181.714 316.752 183.103 308.388 192.962 308.015C194.335 303.652 198.346 300.997 201.921 302.085Z" fill="#CCCCCC"/>
<path d="M259.677 424.488C255.67 437.218 246.957 440.078 236.063 442.023C234.881 442.231 233.675 442.434 232.444 442.63C228.582 443.262 224.502 443.896 220.298 444.895C218.851 445.24 217.388 445.624 215.914 446.068C211.503 447.371 207.269 449.198 203.308 451.508C200.997 452.866 198.794 454.394 196.716 456.077L196.71 456.084C195.696 456.903 194.689 457.768 193.682 458.704C166.642 483.81 150.266 421.185 158.88 393.819C160.928 387.311 164.26 381.265 168.685 376.023C173.11 370.782 178.542 366.449 184.67 363.272C190.798 360.095 197.503 358.135 204.401 357.506C211.3 356.876 218.257 357.588 224.875 359.602C231.494 361.616 237.644 364.891 242.975 369.242C248.305 373.593 252.713 378.933 255.944 384.958C259.176 390.984 261.169 397.576 261.809 404.358C262.45 411.141 261.725 417.981 259.677 424.488Z" fill="#EEEFF0"/>
<path opacity="0.1" d="M268.127 493.186C266.262 499.133 263.698 504.847 260.487 510.211L108.983 464.113C109.415 457.904 110.582 451.765 112.459 445.821C113.188 443.505 114.012 441.247 114.931 439.045L269.984 486.223C269.474 488.546 268.855 490.867 268.127 493.186Z" fill="black"/>
<path opacity="0.1" d="M267.51 495.147C265.644 501.096 263.079 506.81 259.869 512.176L108.364 466.078C108.798 459.867 109.965 453.727 111.842 447.782C112.571 445.466 113.395 443.208 114.313 441.006L269.367 488.184C268.856 490.507 268.237 492.828 267.51 495.147Z" fill="black"/>
<path d="M267.82 494.165C265.953 500.113 263.389 505.828 260.178 511.193L108.674 465.095C109.107 458.885 110.274 452.745 112.151 446.8C112.88 444.484 113.703 442.227 114.621 440.028C171.449 446.674 225.705 457.861 269.675 487.206C269.164 489.528 268.546 491.848 267.82 494.165Z" fill="#373E46"/>
<path opacity="0.1" d="M205.741 481.189C208.726 471.706 203.327 461.639 193.682 458.705C184.036 455.77 173.797 461.078 170.812 470.561C167.827 480.045 173.227 490.111 182.872 493.046C192.517 495.981 202.756 490.672 205.741 481.189Z" fill="black"/>
<path d="M204.742 480.885C207.556 471.944 202.466 462.454 193.372 459.687C184.279 456.92 174.626 461.925 171.812 470.865C168.998 479.806 174.088 489.297 183.181 492.064C192.275 494.83 201.928 489.826 204.742 480.885Z" fill="#EEEFF0"/>
<path d="M201.252 479.823C203.47 472.778 199.458 465.298 192.292 463.118C185.126 460.938 177.519 464.882 175.301 471.927C173.084 478.973 177.095 486.452 184.261 488.633C191.427 490.813 199.034 486.869 201.252 479.823Z" fill="#373E46"/>
<path opacity="0.1" d="M182.981 378.034L164.014 435.793C163.079 434.259 162.224 432.678 161.455 431.058L182.981 378.034Z" fill="black"/>
<path opacity="0.1" d="M196.452 382.133L174.711 448.348C173.411 447.248 172.171 446.081 170.997 444.851L196.452 382.133Z" fill="black"/>
<path opacity="0.1" d="M209.927 386.233L186.964 456.148C185.43 455.451 183.933 454.677 182.479 453.831L209.927 386.233Z" fill="black"/>
<path opacity="0.1" d="M223.398 390.332L203.308 451.508C200.997 452.866 198.793 454.394 196.716 456.077L223.398 390.332Z" fill="black"/>
<path opacity="0.1" d="M236.873 394.432L220.298 444.895C218.851 445.24 217.388 445.624 215.914 446.068L236.873 394.432Z" fill="black"/>
<path opacity="0.1" d="M250.344 398.531L236.063 442.023C234.881 442.231 233.674 442.434 232.444 442.63L250.344 398.531Z" fill="black"/>
<path opacity="0.1" d="M224.338 329.404L230.384 310.818L223.358 329.106L224.338 329.404Z" fill="black"/>
<path opacity="0.1" d="M251.837 317.346L245.792 335.932L244.812 335.634L251.837 317.346Z" fill="black"/>
<path d="M223.248 380.956C232.2 380.956 239.457 373.821 239.457 365.02C239.457 356.218 232.2 349.084 223.248 349.084C214.296 349.084 207.039 356.218 207.039 365.02C207.039 373.821 214.296 380.956 223.248 380.956Z" fill="#FFAB9E"/>
<path d="M149.187 347.33C155.731 351.367 163.278 353.555 171.002 353.658C178.726 353.76 186.33 351.771 192.982 347.91C193.508 345.431 194.035 342.952 194.561 340.473C197.66 343.638 203.753 343.04 206.156 339.337C193.587 312.984 175.138 289.755 152.182 271.377C158.813 275.433 168.388 273.907 173.377 267.999C180.878 265.508 187.982 261.982 194.474 257.525C172.21 222.356 129.757 194.417 119.666 154.199C89.3088 186.251 85.901 197.539 55.5437 229.591C55.5437 229.591 26.7988 255.093 20.5944 268.799C22.1189 270.373 35.767 274.151 36.2917 277.247C41.5135 277.624 46.7567 276.89 51.6644 275.096C56.5721 273.302 61.0291 270.49 64.7322 266.851C45.2197 287.239 25.3742 308.105 13.4246 333.516C12.3486 335.804 11.3266 338.417 12.228 340.777C12.9478 342.662 15.5296 343.748 17.1925 342.999C15.2061 344.883 13.6112 347.128 12.4965 349.611C15.9641 351.788 20.077 352.751 24.1705 352.346C28.264 351.941 32.0989 350.19 35.0553 347.377C33.3909 350.434 31.7265 353.491 30.0621 356.549C35.734 358.582 41.7577 359.496 47.7892 359.24C53.8206 358.983 59.7415 357.561 65.2137 355.054C52.0295 363.186 19.063 391.38 11.8818 404.956C8.62856 411.106 42.0316 418.52 49.5448 418.216C57.0579 417.912 64.0806 414.666 70.8663 411.48C70.5357 414.522 71.1275 417.593 72.5674 420.305C76.2835 421.192 80.1425 421.339 83.9175 420.739C87.6926 420.139 91.3076 418.804 94.5503 416.811C94.1454 425.038 108.568 428.294 111.854 420.718C110.621 425.172 116.616 427.929 121.239 428.736C134.429 431.038 150.347 432.438 158.93 422.325C168.809 432.119 186.912 431.933 196.733 422.173C195.767 423.857 197.246 426.691 199.435 427.137C202.014 427.663 204.523 426.156 206.713 424.717C216.626 418.201 226.539 411.685 236.452 405.169C207.364 385.889 178.276 366.61 149.187 347.33Z" fill="#3F3D56"/>
<path d="M115.794 404.072H102.648V510.699H115.794V404.072Z" fill="#3F3D56"/>
<path d="M513.094 422.719C469.604 523.393 368.114 594 249.847 594C154.051 594 69.2541 547.674 17.3799 476.554C27.9058 473.624 38.523 472.302 49.4225 474.391C75.563 479.41 94.6309 503.046 120.539 509.127C142.936 514.383 166.295 505.519 186.11 493.995C205.933 482.463 224.279 467.992 245.945 460.312C260.315 455.219 281.308 456.631 284.828 471.249C286.43 477.917 284.346 486.895 290.489 490.143C339.176 472.881 387.862 455.616 436.549 438.349C452.329 432.758 468.168 427.143 484.58 423.707C493.91 421.756 503.98 420.638 513.094 422.719Z" fill="#E6E7E8"/>
<path d="M489.806 256.547C504.842 266.113 525.464 266.385 540.756 257.22C541.369 254.337 541.981 251.453 542.594 248.569C546.199 252.25 553.288 251.556 556.083 247.247C541.46 216.588 519.997 189.564 493.29 168.183C501.005 172.901 512.145 171.126 517.948 164.253C526.675 161.355 534.939 157.252 542.492 152.067C516.591 111.153 467.201 78.6482 455.462 31.858C420.144 69.1473 416.179 82.2803 380.862 119.57C380.862 119.57 347.42 149.239 340.202 165.183C341.976 167.015 357.854 171.41 358.464 175.012C364.539 175.45 370.639 174.597 376.349 172.51C382.058 170.423 387.244 167.151 391.552 162.917C368.851 186.637 345.763 210.912 331.861 240.475C330.609 243.137 329.42 246.177 330.469 248.923C331.306 251.115 334.31 252.379 336.244 251.508C333.933 253.699 332.078 256.312 330.781 259.199C338.686 264.453 350.345 263.298 357.026 256.601C355.089 260.157 353.153 263.714 351.217 267.271C357.815 269.636 364.823 270.7 371.84 270.402C378.857 270.104 385.746 268.449 392.112 265.532C376.773 274.993 338.42 307.793 330.066 323.588C326.281 330.743 365.142 339.368 373.883 339.014C382.623 338.66 390.794 334.884 398.688 331.178C398.303 334.717 398.992 338.289 400.667 341.444C404.991 342.476 409.48 342.648 413.872 341.95C418.264 341.252 422.469 339.698 426.242 337.379C425.771 346.951 442.55 350.74 446.373 341.925C444.939 347.107 451.913 350.315 457.291 351.254C472.637 353.932 491.155 355.56 501.141 343.795C512.634 355.189 533.695 354.972 545.121 343.618C543.997 345.577 545.718 348.874 548.264 349.393C551.264 350.005 554.184 348.252 556.731 346.578C568.264 338.997 547.732 325.859 559.265 318.278C525.424 295.848 523.647 278.976 489.806 256.547Z" fill="#3F3D56"/>
<path d="M450.956 322.559H435.663V446.608H450.956V322.559Z" fill="#3F3D56"/>
<path d="M30.1604 180.183C32.7493 180.183 34.8481 178.12 34.8481 175.574C34.8481 173.029 32.7493 170.965 30.1604 170.965C27.5714 170.965 25.4727 173.029 25.4727 175.574C25.4727 178.12 27.5714 180.183 30.1604 180.183Z" fill="#E6E7E8"/>
<path d="M12.6921 286.829C15.2811 286.829 17.3799 284.765 17.3799 282.22C17.3799 279.674 15.2811 277.611 12.6921 277.611C10.1032 277.611 8.00439 279.674 8.00439 282.22C8.00439 284.765 10.1032 286.829 12.6921 286.829Z" fill="#E6E7E8"/>
<path d="M22.5503 364.11C25.1392 364.11 27.238 362.046 27.238 359.501C27.238 356.955 25.1392 354.892 22.5503 354.892C19.9613 354.892 17.8625 356.955 17.8625 359.501C17.8625 362.046 19.9613 364.11 22.5503 364.11Z" fill="#E6E7E8"/>
<path d="M396.132 130.125C398.721 130.125 400.82 128.062 400.82 125.516C400.82 122.971 398.721 120.907 396.132 120.907C393.543 120.907 391.444 122.971 391.444 125.516C391.444 128.062 393.543 130.125 396.132 130.125Z" fill="#E6E7E8"/>
<path d="M80.1794 308.951C82.7684 308.951 84.8672 306.888 84.8672 304.342C84.8672 301.797 82.7684 299.733 80.1794 299.733C77.5905 299.733 75.4917 301.797 75.4917 304.342C75.4917 306.888 77.5905 308.951 80.1794 308.951Z" fill="white"/>
<path d="M153.308 331.777C155.897 331.777 157.996 329.714 157.996 327.168C157.996 324.623 155.897 322.559 153.308 322.559C150.719 322.559 148.62 324.623 148.62 327.168C148.62 329.714 150.719 331.777 153.308 331.777Z" fill="white"/>
<path d="M420.549 241.661C423.138 241.661 425.237 239.598 425.237 237.052C425.237 234.507 423.138 232.443 420.549 232.443C417.96 232.443 415.862 234.507 415.862 237.052C415.862 239.598 417.96 241.661 420.549 241.661Z" fill="white"/>
<path d="M443.31 157.779C445.899 157.779 447.997 155.715 447.997 153.17C447.997 150.624 445.899 148.561 443.31 148.561C440.721 148.561 438.622 150.624 438.622 153.17C438.622 155.715 440.721 157.779 443.31 157.779Z" fill="#E6E7E8"/>
<path d="M358.63 237.052C361.219 237.052 363.318 234.989 363.318 232.443C363.318 229.898 361.219 227.834 358.63 227.834C356.041 227.834 353.943 229.898 353.943 232.443C353.943 234.989 356.041 237.052 358.63 237.052Z" fill="white"/>
<path d="M148.62 273.002C151.209 273.002 153.308 270.938 153.308 268.393C153.308 265.847 151.209 263.784 148.62 263.784C146.031 263.784 143.932 265.847 143.932 268.393C143.932 270.938 146.031 273.002 148.62 273.002Z" fill="white"/>
<path d="M157.996 157.779C160.585 157.779 162.683 155.715 162.683 153.17C162.683 150.624 160.585 148.561 157.996 148.561C155.407 148.561 153.308 150.624 153.308 153.17C153.308 155.715 155.407 157.779 157.996 157.779Z" fill="#E6E7E8"/>
<path d="M274.961 163.443C277.55 163.443 279.649 161.379 279.649 158.834C279.649 156.289 277.55 154.225 274.961 154.225C272.372 154.225 270.274 156.289 270.274 158.834C270.274 161.379 272.372 163.443 274.961 163.443Z" fill="#E6E7E8"/>
<path d="M307.261 292.215C309.85 292.215 311.949 290.152 311.949 287.606C311.949 285.061 309.85 282.997 307.261 282.997C304.672 282.997 302.573 285.061 302.573 287.606C302.573 290.152 304.672 292.215 307.261 292.215Z" fill="white"/>
<path d="M356.102 280.962C358.691 280.962 360.79 278.898 360.79 276.353C360.79 273.807 358.691 271.744 356.102 271.744C353.513 271.744 351.414 273.807 351.414 276.353C351.414 278.898 353.513 280.962 356.102 280.962Z" fill="#E6E7E8"/>
<path d="M391.444 369.34C394.033 369.34 396.132 367.277 396.132 364.731C396.132 362.186 394.033 360.122 391.444 360.122C388.855 360.122 386.757 362.186 386.757 364.731C386.757 367.277 388.855 369.34 391.444 369.34Z" fill="white"/>
<path d="M368.006 393.802C370.595 393.802 372.694 391.738 372.694 389.193C372.694 386.647 370.595 384.584 368.006 384.584C365.417 384.584 363.318 386.647 363.318 389.193C363.318 391.738 365.417 393.802 368.006 393.802Z" fill="#E6E7E8"/>
<path d="M249.847 308.951C252.436 308.951 254.534 306.888 254.534 304.342C254.534 301.797 252.436 299.733 249.847 299.733C247.258 299.733 245.159 301.797 245.159 304.342C245.159 306.888 247.258 308.951 249.847 308.951Z" fill="white"/>
<path d="M443.31 296.473C445.899 296.473 447.997 294.409 447.997 291.864C447.997 289.318 445.899 287.255 443.31 287.255C440.721 287.255 438.622 289.318 438.622 291.864C438.622 294.409 440.721 296.473 443.31 296.473Z" fill="#E6E7E8"/>
<path d="M555.694 361.649C563.043 361.649 569 355.792 569 348.567C569 341.342 563.043 335.485 555.694 335.485C548.345 335.485 542.388 341.342 542.388 348.567C542.388 355.792 548.345 361.649 555.694 361.649Z" fill="#F05454"/>
<path d="M473.699 370.867C481.047 370.867 487.005 365.01 487.005 357.785C487.005 350.56 481.047 344.703 473.699 344.703C466.35 344.703 460.393 350.56 460.393 357.785C460.393 365.01 466.35 370.867 473.699 370.867Z" fill="#FF6584"/>
<path d="M327.097 344.859C334.446 344.859 340.403 339.002 340.403 331.777C340.403 324.552 334.446 318.695 327.097 318.695C319.749 318.695 313.791 324.552 313.791 331.777C313.791 339.002 319.749 344.859 327.097 344.859Z" fill="#F05454"/>
<path d="M319.249 259.352C326.598 259.352 332.555 253.495 332.555 246.27C332.555 239.045 326.598 233.188 319.249 233.188C311.9 233.188 305.943 239.045 305.943 246.27C305.943 253.495 311.9 259.352 319.249 259.352Z" fill="#F05454"/>
<path d="M555.694 254.743C563.043 254.743 569 248.886 569 241.661C569 234.436 563.043 228.579 555.694 228.579C548.345 228.579 542.388 234.436 542.388 241.661C542.388 248.886 548.345 254.743 555.694 254.743Z" fill="#F05454"/>
<path d="M542.492 165.15C549.841 165.15 555.798 159.293 555.798 152.067C555.798 144.842 549.841 138.985 542.492 138.985C535.143 138.985 529.186 144.842 529.186 152.067C529.186 159.293 535.143 165.15 542.492 165.15Z" fill="#FF6584"/>
<path d="M75.4917 417.216C78.0806 417.216 80.1794 415.152 80.1794 412.607C80.1794 410.061 78.0806 407.998 75.4917 407.998C72.9027 407.998 70.804 410.061 70.804 412.607C70.804 415.152 72.9027 417.216 75.4917 417.216Z" fill="white"/>
<path d="M137.869 421.603C140.458 421.603 142.557 419.54 142.557 416.994C142.557 414.449 140.458 412.385 137.869 412.385C135.28 412.385 133.181 414.449 133.181 416.994C133.181 419.54 135.28 421.603 137.869 421.603Z" fill="white"/>
<path d="M231.096 434.665C233.685 434.665 235.784 432.602 235.784 430.056C235.784 427.511 233.685 425.447 231.096 425.447C228.507 425.447 226.408 427.511 226.408 430.056C226.408 432.602 228.507 434.665 231.096 434.665Z" fill="white"/>
<path d="M211.436 212.164C214.025 212.164 216.124 210.1 216.124 207.555C216.124 205.01 214.025 202.946 211.436 202.946C208.847 202.946 206.748 205.01 206.748 207.555C206.748 210.1 208.847 212.164 211.436 212.164Z" fill="white"/>
<path d="M219.955 189.253C222.544 189.253 224.643 187.189 224.643 184.644C224.643 182.099 222.544 180.035 219.955 180.035C217.366 180.035 215.267 182.099 215.267 184.644C215.267 187.189 217.366 189.253 219.955 189.253Z" fill="#E6E7E8"/>
<path d="M107.368 246.27C109.957 246.27 112.056 244.207 112.056 241.661C112.056 239.116 109.957 237.052 107.368 237.052C104.779 237.052 102.68 239.116 102.68 241.661C102.68 244.207 104.779 246.27 107.368 246.27Z" fill="white"/>
<g opacity="0.35">
<path opacity="0.35" d="M519.289 236.129C527.292 232.698 511.061 230.701 492.645 230.044C474.23 229.388 451.952 229.424 440.184 227.556C428.802 225.749 429.64 222.537 428.683 219.627C427.725 216.717 423.35 213.733 405.589 213.086C383.458 212.28 346.962 215.383 330.255 213.52C314.664 211.781 323.931 206.328 301.198 206.119C288.216 206 271.492 207.798 257.047 208.232C243.486 208.639 233.453 207.796 226.413 206.661C219.372 205.527 214.468 204.089 206.544 203.088C185.741 200.458 145.04 201.342 108.712 204.712C72.3849 208.083 41.2457 213.607 23.6841 219.078C6.12255 224.55 1.27061 229.936 5.36136 234.504C7.97353 237.421 14.658 240.149 30.8729 241.321C61.2018 243.513 115.2 239.74 146.539 241.734C164.006 242.846 171.755 245.602 187.081 247.111C203.546 248.731 227.648 248.817 251.329 248.778C300.636 248.698 351.204 248.2 402.768 247.287C424.305 246.905 446.872 246.409 469.79 244.591C492.708 242.773 516.083 239.265 520.918 235.976" fill="white"/>
</g>
<path d="M353.943 174.725C361.291 174.725 367.249 168.868 367.249 161.643C367.249 154.418 361.291 148.561 353.943 148.561C346.594 148.561 340.637 154.418 340.637 161.643C340.637 168.868 346.594 174.725 353.943 174.725Z" fill="#F05454"/>
<path d="M229.631 284.428C232.22 284.428 234.319 282.365 234.319 279.819C234.319 277.274 232.22 275.21 229.631 275.21C227.042 275.21 224.943 277.274 224.943 279.819C224.943 282.365 227.042 284.428 229.631 284.428Z" fill="white"/>
<path d="M445.095 76.6616C447.683 76.6616 449.782 74.5981 449.782 72.0527C449.782 69.5072 447.683 67.4437 445.095 67.4437C442.506 67.4437 440.407 69.5072 440.407 72.0527C440.407 74.5981 442.506 76.6616 445.095 76.6616Z" fill="white"/>
<path d="M240.471 346.703C243.06 346.703 245.159 344.639 245.159 342.094C245.159 339.548 243.06 337.485 240.471 337.485C237.882 337.485 235.783 339.548 235.783 342.094C235.783 344.639 237.882 346.703 240.471 346.703Z" fill="white"/>
<path d="M329.807 421.825C332.396 421.825 334.495 419.761 334.495 417.216C334.495 414.67 332.396 412.607 329.807 412.607C327.218 412.607 325.119 414.67 325.119 417.216C325.119 419.761 327.218 421.825 329.807 421.825Z" fill="white"/>
<path d="M368.006 487.979C370.595 487.979 372.694 485.915 372.694 483.37C372.694 480.824 370.595 478.761 368.006 478.761C365.417 478.761 363.318 480.824 363.318 483.37C363.318 485.915 365.417 487.979 368.006 487.979Z" fill="white"/>
<path d="M253.963 489.891C256.552 489.891 258.651 487.827 258.651 485.282C258.651 482.737 256.552 480.673 253.963 480.673C251.374 480.673 249.275 482.737 249.275 485.282C249.275 487.827 251.374 489.891 253.963 489.891Z" fill="white"/>
<path d="M123.034 529.694C125.623 529.694 127.722 527.631 127.722 525.085C127.722 522.54 125.623 520.476 123.034 520.476C120.445 520.476 118.346 522.54 118.346 525.085C118.346 527.631 120.445 529.694 123.034 529.694Z" fill="white"/>
<path d="M279.867 308.951C282.456 308.951 284.555 306.888 284.555 304.342C284.555 301.797 282.456 299.733 279.867 299.733C277.278 299.733 275.18 301.797 275.18 304.342C275.18 306.888 277.278 308.951 279.867 308.951Z" fill="white"/>
<path d="M217.529 206.141C220.118 206.141 222.217 204.078 222.217 201.532C222.217 198.987 220.118 196.923 217.529 196.923C214.94 196.923 212.842 198.987 212.842 201.532C212.842 204.078 214.94 206.141 217.529 206.141Z" fill="#F05454"/>
<path d="M264.295 451.512L261.805 416.009C301.398 416.009 336.1 401.07 336.1 362.142H355.193C355.166 385.836 345.581 408.553 328.54 425.307C311.499 442.061 288.394 451.486 264.295 451.512Z" fill="#F05454"/>
<path d="M320.504 352.245C321.466 352.077 322.44 351.983 323.417 351.967C323.958 351.691 324.514 351.446 325.084 351.232L320.504 352.245Z" fill="#F05454"/>
<path d="M437.069 442.187C436.666 434.026 434.188 426.094 429.861 419.118C425.533 412.142 419.495 406.344 412.299 402.256C395.459 392.923 374.525 394.114 356.738 386.67C353.273 385.22 349.802 383.319 347.76 380.208C345.134 376.206 345.383 371.065 344.036 366.49C341.499 357.878 332.456 351.739 323.417 351.967C320.618 353.34 318.252 355.434 316.57 358.027C314.889 360.619 313.956 363.612 313.871 366.686C313.785 369.759 314.552 372.798 316.087 375.476C317.622 378.155 319.869 380.373 322.587 381.893C313.417 380.335 304.024 385.617 298.822 393.204C293.62 400.791 292.012 410.254 291.988 419.404C292.047 432.482 295.021 445.388 300.701 457.214C306.381 469.04 314.627 479.499 324.861 487.854C330.914 492.725 337.798 496.884 345.465 498.405C355.623 500.421 366.109 497.648 375.852 494.175C391.247 488.686 405.923 481.414 419.57 472.513C424.372 469.38 429.147 465.944 432.339 461.226C436.082 455.697 437.325 448.824 437.069 442.187Z" fill="#D1D3D4"/>
<path d="M321.97 383.327C324.237 384.274 326.686 384.189 329.095 384.029C331.505 383.869 333.921 383.733 336.328 383.52C340.224 383.176 344.254 382.438 347.2 379.703C348.366 378.62 346.696 376.803 345.529 377.886C342.923 380.307 339.235 380.85 335.795 381.126C333.664 381.296 331.528 381.423 329.395 381.568C327.135 381.721 324.855 381.884 322.722 380.993C321.248 380.378 320.505 382.716 321.97 383.327Z" fill="#3F3D56"/>
<path d="M346.851 380.365C347.557 378.786 347.522 376.682 348.736 375.354C348.951 375.135 349.211 374.964 349.499 374.853C349.787 374.742 350.096 374.694 350.405 374.712C350.803 374.717 351.2 374.745 351.595 374.797C351.89 374.797 352.183 374.844 352.463 374.936C352.495 374.954 352.464 374.905 352.455 374.892C352.44 374.868 352.405 375.111 352.388 375.15C352.241 375.442 352.051 375.711 351.823 375.948C351.352 376.481 350.809 376.948 350.21 377.338C348.977 378.146 347.543 378.61 346.063 378.678C345.764 378.671 345.472 378.77 345.24 378.956C345.009 379.143 344.853 379.404 344.8 379.693C344.745 379.984 344.8 380.284 344.955 380.537C345.11 380.79 345.353 380.979 345.639 381.069L349.257 381.865C350.426 382.123 351.64 382.314 352.782 382.674C353.197 382.805 354.262 383.274 353.88 383.815C353.555 384.276 352.515 384.344 352.042 384.362C350.525 384.414 349.033 383.965 347.806 383.087C346.578 382.208 345.685 380.951 345.269 379.516C344.883 377.989 342.452 378.52 342.84 380.055C343.288 381.7 344.196 383.188 345.461 384.352C346.727 385.515 348.298 386.306 349.997 386.636C351.768 386.968 353.955 386.927 355.415 385.743C355.833 385.408 356.143 384.961 356.309 384.457C356.474 383.952 356.487 383.411 356.346 382.899C356.177 382.372 355.89 381.889 355.507 381.485C355.123 381.081 354.653 380.767 354.13 380.564C352.941 380.137 351.712 379.825 350.461 379.631L346.392 378.735L345.968 381.125C347.672 381.074 349.339 380.627 350.833 379.821C352.363 379.05 353.639 377.868 354.513 376.412C354.75 376.024 354.89 375.586 354.92 375.135C354.951 374.684 354.871 374.232 354.689 373.817C354.184 372.82 353.079 372.537 352.052 372.396C350.275 372.151 348.349 372.202 347.033 373.581C345.406 375.286 345.39 377.584 344.477 379.626C344.379 379.935 344.41 380.27 344.561 380.558C344.713 380.846 344.974 381.063 345.288 381.163C345.602 381.253 345.941 381.221 346.232 381.072C346.523 380.924 346.745 380.671 346.851 380.365L346.851 380.365Z" fill="#3F3D56"/>
<path d="M344.817 370.304C352.611 370.304 358.929 364.092 358.929 356.429C358.929 348.766 352.611 342.554 344.817 342.554C337.023 342.554 330.705 348.766 330.705 356.429C330.705 364.092 337.023 370.304 344.817 370.304Z" fill="#FFAB9E"/>
<path d="M212.794 387.367C217.362 389.421 222.466 390.03 227.402 389.11C232.337 388.19 236.86 385.786 240.346 382.23C241.454 381.091 239.696 379.357 238.585 380.499C235.494 383.682 231.477 385.848 227.084 386.699C222.692 387.55 218.14 387.045 214.051 385.253C212.602 384.608 211.335 386.717 212.794 387.367V387.367Z" fill="#FFAB9E"/>
<path d="M58.3579 488.959C66.1518 488.959 72.4699 482.747 72.4699 475.084C72.4699 467.421 66.1518 461.209 58.3579 461.209C50.564 461.209 44.2458 467.421 44.2458 475.084C44.2458 482.747 50.564 488.959 58.3579 488.959Z" fill="#FFAB9E"/>
</g>
<defs>
<filter id="filter0_d_2_132" x="0" y="0" width="577" height="604" filterUnits="userSpaceOnUse" color-interpolation-filters="sRGB">
<feFlood flood-opacity="0" result="BackgroundImageFix"/>
<feColorMatrix in="SourceAlpha" type="matrix" values="0 0 0 0 0 0 0 0 0 0 0 0 0 0 0 0 0 0 127 0" result="hardAlpha"/>
<feOffset dx="2" dy="4"/>
<feGaussianBlur stdDeviation="3"/>
<feComposite in2="hardAlpha" operator="out"/>
<feColorMatrix type="matrix" values="0 0 0 0 0.183333 0 0 0 0 0.183333 0 0 0 0 0.183333 0 0 0 0.25 0"/>
<feBlend mode="normal" in2="BackgroundImageFix" result="effect1_dropShadow_2_132"/>
<feBlend mode="normal" in="SourceGraphic" in2="effect1_dropShadow_2_132" result="shape"/>
</filter>
<clipPath id="clip0_2_132">
<rect width="565" height="592" fill="white" transform="translate(4 2)"/>
</clipPath>
</defs>
</svg>
